<?xml version="1.0" standalone="no"?><!DOCTYPE svg PUBLIC "-//W3C//DTD SVG 1.1//EN" "http://www.w3.org/Graphics/SVG/1.1/DTD/svg11.dtd"><svg t="1664189162898" class="icon" viewBox="0 0 1024 1024" version="1.1" xmlns="http://www.w3.org/2000/svg" p-id="2221" xmlns:xlink="http://www.w3.org/1999/xlink" width="200" height="200"><path d="M861 186.8h-70.7v-58c0-34.8-28.4-63.2-63.2-63.2H162.3c-34.8 0-63.2 28.4-63.2 63.2v646.5c0 34.8 28.4 63.2 63.2 63.2H233v58c0 34.8 28.4 63.2 63.2 63.2H861c34.8 0 63.2-28.4 63.2-63.2V250c-0.1-34.9-28.4-63.2-63.2-63.2zM162.3 782.7c-4.1 0-7.4-3.3-7.4-7.4V128.7c0-4.1 3.3-7.4 7.4-7.4h564.8c4.1 0 7.4 3.3 7.4 7.4v58H296.2c-34.8 0-63.2 28.4-63.2 63.2v532.7h-70.7z m706.1 113.8c0 4.1-3.3 7.4-7.4 7.4H296.2c-4.1 0-7.4-3.3-7.4-7.4V250c0-4.1 3.3-7.4 7.4-7.4H861c4.1 0 7.4 3.3 7.4 7.4v646.5z m0 0" fill="#000000" p-id="2222"></path><path d="M586.7 676.7H427.5c-15.4 0-27.9 12.5-27.9 27.9 0 15.4 12.5 27.9 27.9 27.9h159.2c15.4 0 27.9-12.5 27.9-27.9 0-15.4-12.5-27.9-27.9-27.9z m145.7-150.9H427.5c-15.4 0-27.9 12.5-27.9 27.9 0 15.4 12.5 27.9 27.9 27.9h304.8c15.4 0 27.9-12.5 27.9-27.9 0-15.4-12.4-27.9-27.8-27.9z m0-145.3H427.5c-15.4 0-27.9 12.5-27.9 27.9 0 15.4 12.5 27.9 27.9 27.9h304.8c15.4 0 27.9-12.5 27.9-27.9 0-15.5-12.4-27.9-27.8-27.9z m0 0" fill="#000000" p-id="2223"></path></svg>