<?xml version="1.0" standalone="no"?><!DOCTYPE svg PUBLIC "-//W3C//DTD SVG 1.1//EN" "http://www.w3.org/Graphics/SVG/1.1/DTD/svg11.dtd"><svg t="1664189171851" class="icon" viewBox="0 0 1024 1024" version="1.1" xmlns="http://www.w3.org/2000/svg" p-id="2518" xmlns:xlink="http://www.w3.org/1999/xlink" width="200" height="200"><path d="M752.53958333 640.3625c-60.525-12.9375-113.90625 41.85-100.9125 105.3a86.00625 86.00625 0 0 0 69.1875 69.1875c60.58125 12.99375 113.9625-41.79375 100.96875-100.9125a89.26875 89.26875 0 0 0-69.1875-73.575z m-15.8625 126.9a42.80625 42.80625 0 0 1-41.79375-41.79375c0-21.65625 18.73125-41.85 41.79375-41.85 21.65625 0 41.85 18.7875 41.85 41.85s-20.19375 41.79375-41.85 41.79375z m230.79375-87.975c-2.86875-15.8625-15.8625-28.8-28.85625-28.8h-2.86875a49.275 49.275 0 0 1-50.5125-50.5125c0-5.79375 2.925-15.8625 2.925-18.73125a40.5 40.5 0 0 0-12.99375-44.71875l-57.7125-31.725h-15.8625c-10.125 0-21.6 2.86875-28.85625 12.9375-5.7375 5.79375-25.93125 21.65625-37.4625 21.65625-12.99375 0-31.725-15.8625-41.85-21.6a41.7375 41.7375 0 0 0-28.85625-12.99375c-5.7375 0-10.125 0-12.9375 2.86875l-60.58125 31.725c-12.99375 10.125-18.7875 28.85625-12.99375 44.71875 0 0 2.86875 10.125 2.86875 18.73125a49.275 49.275 0 0 1-50.45625 50.5125c-12.99375 0-25.9875 12.9375-28.85625 28.85625 0 2.8125-5.79375 25.93125-5.79375 47.5875 0 18.73125 2.925 44.71875 5.79375 47.5875 2.86875 15.8625 15.8625 28.85625 28.85625 28.85625H533.33333333c28.85625 0 50.45625 21.6 50.45625 50.45625 0 5.79375-2.8125 15.8625-2.8125 18.7875a40.5 40.5 0 0 0 12.9375 44.6625l57.7125 31.725c5.7375-2.8125 10.125-2.8125 15.8625-2.8125 10.125 0 21.6-2.925 28.8-13.05 5.79375-5.7375 25.9875-25.93125 41.85-25.93125 12.9375 0 34.59375 15.8625 41.85 25.93125 5.7375 5.79375 15.8625 12.99375 28.8 12.99375 5.79375 0 10.125 0 15.8625-2.86875l57.7125-31.725c12.9375-10.125 18.7875-28.85625 12.9375-44.71875 0 0-2.8125-10.125-2.8125-18.73125 0-28.85625 21.6-50.5125 50.45625-50.5125h2.86875c12.99375 0 25.9875-12.9375 28.85625-28.85625 0 0 5.79375-25.93125 5.79375-47.5875-8.6625-15.8625-12.99375-41.79375-12.99375-44.71875z m-43.3125 79.3125c-47.53125 5.79375-82.125 44.71875-82.125 95.23125 0 10.125 2.8125 21.65625 5.7375 28.85625l-41.85 21.6-15.8625-15.8625c-18.73125-12.9375-34.59375-18.73125-53.38125-18.73125-15.8625 0-34.59375 5.79375-53.325 18.73125-5.79375 5.79375-12.99375 10.125-15.8625 15.8625l-37.51875-21.6c2.86875-5.79375 5.79375-18.7875 5.79375-28.85625 0-47.5875-34.65-89.4375-82.2375-95.175 0-5.79375-2.86875-18.7875-2.86875-31.78125 0-10.125 2.86875-21.6 2.86875-31.725 47.5875-5.7375 82.2375-44.6625 82.2375-95.175 0-10.125-2.925-21.65625-5.79375-28.85625l41.85-21.6c2.8125 2.8125 10.06875 10.125 15.8625 12.9375 18.73125 12.99375 34.59375 18.7875 50.45625 18.7875 15.8625 0 31.725-5.79375 50.45625-18.7875 5.79375-5.7375 12.99375-10.125 15.91875-12.9375l41.79375 21.6a78.46875 78.46875 0 0 0-5.79375 28.85625c0 47.5875 34.65 89.4375 82.2375 95.175 0 5.79375 2.86875 18.7875 2.86875 31.725 1.4625 8.6625-1.40625 21.65625-1.40625 31.78125zM191.55833333 885.6125a49.275 49.275 0 0 1-50.45625-50.45625c0-168.75 129.76875-307.2375 294.1875-323.1h34.65c37.4625-2.86875 92.25-12.9375 121.1625-37.51875l12.9375-10.125C657.42083333 419.75 689.14583333 356.3 689.14583333 287c0-124.03125-100.96875-225-227.86875-225C344.33333333 62 241.95833333 162.96875 241.95833333 287c0 69.1875 31.725 132.69375 85.05 177.4125l15.8625 10.125-15.8625 5.7375C181.37708333 537.9875 83.33333333 676.41875 83.33333333 835.1c0 60.58125 47.5875 108.16875 108.16875 108.16875h288.45c10.125 0 25.9875-10.125 25.9875-28.85625 0-21.65625-15.8625-28.85625-25.9875-28.85625H191.50208333zM299.67083333 285.5375c0-92.25 76.5-168.75 168.75-168.75 92.30625 0 168.75 76.5 168.75 168.75 0 92.30625-77.85 168.75-170.15625 168.75-92.3625 0-167.34375-76.44375-167.34375-168.75z" fill="#000000" p-id="2519"></path></svg>