<?xml version="1.0" standalone="no"?><!DOCTYPE svg PUBLIC "-//W3C//DTD SVG 1.1//EN" "http://www.w3.org/Graphics/SVG/1.1/DTD/svg11.dtd"><svg t="1664189129054" class="icon" viewBox="0 0 1024 1024" version="1.1" xmlns="http://www.w3.org/2000/svg" p-id="1506" xmlns:xlink="http://www.w3.org/1999/xlink" width="200" height="200"><path d="M123.45166003 402.74516601L485.490332 40.70649405c7.91959595-7.91959595 19.4369512-11.11006175 30.27548394-8.46265396 10.88378758 2.69266262 19.5727157 10.88378758 22.87631859 21.5639284l6.49406867 21.02087039C560.61335643 125.10675945 576.61094025 177.08193629 593.24209174 193.71308779c6.08677517 6.08677517 8.84732005 8.84732005 19.12016737-1.42552727 9.61665222-9.61665222 15.36401614-22.96682825 16.13334832-27.67333099 3.55250447-20.61357689 16.08809349-42.96946488 34.43892867-61.32030007 18.69024644-18.69024644 40.36731192-30.36599361 61.09402589-32.94551915C761.56744679 65.75504466 805.84930186 89.53645993 859.38577047 143.07292855c63.96770785 63.96770785 50.52702216 122.93475655 16.65377891 156.80799979-11.99253101 11.99253101-27.65070357 21.94859449-45.30008883 28.73681959-40.88774252 15.77130965-52.02043168 27.80909549-55.02987814 31.85940313 0.29415642 0.33941125 0.63356768 0.72407734 1.0634886 1.15399827 42.74319071 43.42201322 157.62258681 128.79525755 158.77658508 129.63247198 8.34951687 6.22253967 13.16915669 16.06546607 12.9202551 26.4967053C948.24363702 527.26384175 943.37874237 578.42443159 870.15642096 651.64675299c-34.50681092 34.50681092-65.73264638 37.6746493-85.80316525 34.25790934-23.41937659-3.95979797-43.60303256-19.25593187-54.01164438-40.84248768-24.77702161-51.43211884-52.35984293-82.1375237-77.7478048-86.43673294-19.36906895-3.30360288-42.24538754 8.07798787-67.95013325 33.78273358-7.35391052 7.35391052-16.17860315 29.93607269-12.67135352 57.06634567 3.1904658 24.86753128 17.53624817 60.61885014 67.58809458 89.8534729 17.94354168 10.47649407 29.32513243 28.01274224 32.0856773 49.37302389C676.10369279 823.29833834 657.73023019 864.07294377 621.25483399 900.54833997c-20.95298814 20.95298814-56.00285707 56.00285707-119.29174242 49.55404322-7.30865569-0.74670476-14.11950821-3.98242539-19.32381411-9.14147646L120.28382165 580.59666362C72.08742345 532.40026541 73.53557813 452.66124791 123.45166003 402.74516601zM493.25153603 123.45495801L168.70649403 448.00000001c-24.52812003 24.52812003-25.99890213 64.51076586-3.23572063 87.27394736L519.00153657 886.85875269C545.1362032 886.15730276 559.57249525 871.72101071 575.99999999 855.29350597c32.01779505-32.01779505 34.00900775-56.99846342 31.61050155-60.48308563-56.93058117-33.30755782-92.00307751-81.91124953-99.13071387-137.19002926-5.54371716-42.83370038 6.58457835-86.23308618 30.86379678-110.51230462 41.20452635-41.20452635 82.9294833-58.58238261 123.9303629-51.61313817 47.72122245 8.1232427 89.69508098 49.10149489 124.69969508 121.8033857 0.38466609 0.79195959 2.48901587 4.75175757 7.0597541 5.52108975C797.74868657 623.27197208 807.86314197 623.430364 824.90158697 606.391919c34.52943834-34.52943834 49.14674972-61.27504523 55.30140714-76.66168879-34.86884959-26.3609408-112.95606565-86.57249743-149.02416835-123.22891297-27.83172291-28.23901641-27.10764556-65.25747062 1.90070303-94.26581922 15.9749564-15.9749564 40.38993934-30.16234686 74.64784868-43.37675838 9.36775064-3.62038672 17.33260142-8.55316363 23.05733792-14.27790013C847.25747496 238.15333477 841.66850296 215.86532903 814.13093648 188.32776254c-55.86709257-55.86709257-79.78427233-54.75834914-82.31854304-54.4415653-5.09116882 0.61094026-14.36840979 5.40795266-23.62302335 14.66256622-10.00131831 10.00131831-15.56766289 20.68145914-16.58589666 26.85874398-3.4619948 20.29679305-17.12895467 45.27746141-33.98638033 62.13488707-33.71485133 33.71485133-76.75219846 34.30316417-109.62983535 1.42552727C524.61313599 215.59380002 509.06810051 173.57468666 493.25153603 123.45495801z" fill="#000000" p-id="1507"></path></svg>