<?xml version="1.0" standalone="no"?><!DOCTYPE svg PUBLIC "-//W3C//DTD SVG 1.1//EN" "http://www.w3.org/Graphics/SVG/1.1/DTD/svg11.dtd"><svg t="1664695396837" class="icon" viewBox="0 0 1024 1024" version="1.1" xmlns="http://www.w3.org/2000/svg" p-id="1238" xmlns:xlink="http://www.w3.org/1999/xlink" width="200" height="200"><path d="M822 908.75H202a91.74 91.74 0 0 1-91.64-91.64v-318A91.74 91.74 0 0 1 202 407.42h127.8a27 27 0 1 1 0 53.91H202a37.78 37.78 0 0 0-37.74 37.73v318.05A37.77 37.77 0 0 0 202 854.84h620a37.77 37.77 0 0 0 37.74-37.73v-318A37.78 37.78 0 0 0 822 461.33H702a27 27 0 1 1 0-53.91h120a91.74 91.74 0 0 1 91.64 91.64v318.05A91.74 91.74 0 0 1 822 908.75z" fill="#bac0cd" p-id="1239"></path><path d="M694.2 337.34a26.87 26.87 0 0 1-19.06-7.89L516.79 171.1a6.88 6.88 0 0 0-9.58 0L348.86 329.45a27 27 0 0 1-38.12-38.12L469.09 133a60.75 60.75 0 0 1 85.82 0l158.35 158.33a27 27 0 0 1-19.06 46z" fill="#bac0cd" p-id="1240"></path><path d="M512 757.81a26.94 26.94 0 0 1-26.95-26.95V181a27 27 0 1 1 53.9 0v549.86A26.94 26.94 0 0 1 512 757.81z" fill="#bac0cd" p-id="1241"></path></svg>